<svg xmlns="http://www.w3.org/2000/svg" viewBox="-0.34596 -2.6638 8.99546 3.57494" width="180" height="40"><g color="#000" fill="none" stroke="#000" stroke-width="0.07208" stroke-linecap="round" stroke-linejoin="round"><path data-openplotfont-kind="stroke" fill="none" d="M0.5222 -0.92386 C0.707 -0.89628 1.08724 -0.86814 1.22164 -0.917"/><path data-openplotfont-kind="stroke" fill="none" d="M0.7462 -2.02804 C1.0248 -1.14842 1.26952 -0.2884 1.58816 0.56518"/><path data-openplotfont-kind="stroke" fill="none" d="M0.777 -1.79662 C0.63 -1.16186 0.4368 -0.59472 0.238 -0.03738"/><path data-openplotfont-kind="stroke" fill="none" d="M2.67876 -0.57106 C2.36656 -0.686 1.99416 -0.48734 1.99696 -0.29022 C2.00396 0.12446 2.40016 -0.06412 2.70256 -0.19194"/><path data-openplotfont-kind="stroke" fill="none" d="M2.02076 -0.79576 C2.02076 -0.79576 2.11736 -1.20946 2.43096 -1.14086 C2.69976 -1.08206 2.71516 -0.66066 2.71656 -0.48216 C2.71796 -0.12334 2.73056 0.06762 2.86076 0.04844"/><path data-openplotfont-kind="stroke" fill="none" d="M4.82958 -2.13766 C4.55854 -2.1 4.1482 -1.58214 4.2889 -0.8099 C4.34154 -0.51898 4.5332 0.02044 5.01508 0.0294 C5.28528 0.03444 5.77066 -0.37352 5.65922 -1.24824 C5.52286 -2.31784 4.84316 -2.16034 4.84316 -2.16034"/><path data-openplotfont-kind="stroke" fill="none" d="M6.09546 -1.49506 C6.2839 -1.69232 6.51952 -1.9404 6.59848 -2.21088"/><path data-openplotfont-kind="stroke" fill="none" d="M6.58616 -2.17378 C6.50286 -1.45992 6.45036 -0.72954 6.5317 -0.10724"/><path data-openplotfont-kind="stroke" fill="none" d="M7.08218 -1.67524 C7.03248 -1.9145 7.32242 -2.08012 7.57162 -2.08852 C7.94766 -2.1014 8.02466 -1.72102 8.00114 -1.54826 C7.93954 -1.09648 7.33278 -1.30704 6.94988 0.00322 C7.37884 -0.20888 7.7574 0.19054 8.14702 -0.1932"/></g></svg>