<svg xmlns="http://www.w3.org/2000/svg" viewBox="-0.336 -2.576 9.5732 3.472" width="180" height="40"><g color="#000" fill="none" stroke="#000" stroke-width="0.07" stroke-linecap="round" stroke-linejoin="round"><path data-openplotfont-kind="stroke" fill="none" d="M0.05292 -0.02646 L0.2912 -0.02646 L0.4228 -0.0882 L0.574 -0.22932 L1.4728 -1.8536 L0.9884 -1.8536 L0.6888 -1.7388 L0.5124 -1.5428 L0.4508 -1.358 L0.4312 -1.1368"/><path data-openplotfont-kind="stroke" fill="none" d="M1.5092 -1.862 L1.4728 -0.7952 L0.9072 -0.7952 L1.4728 -0.7952 L1.4812 -0.3612 L1.5176 -0.14112 L1.6044 -0.03528 L1.6744 -0.01764 L1.862 -0.11452"/><path data-openplotfont-kind="stroke" fill="none" d="M2.912 -1.19 L2.604 -1.2096 L2.38252 -1.1116 L2.22376 -0.8288 L2.16202 -0.4676 L2.16202 -0.18508 L2.18848 -0.04424 L2.3562 -0.21168 L2.5956 -0.546 L2.744 -0.7952 L2.8588 -1.0332 L2.912 -1.1564 L2.7888 -0.6076 L2.7272 -0.336 L2.7076 -0.18508 L2.6908 -0.03528 L2.8672 -0.15008 L3.1752 -0.5208 L3.3096 -0.7056"/><path data-openplotfont-kind="stroke" fill="none" d="M5.2584 -1.288 L4.9504 -1.1648 L4.7656 -0.8988 L4.6844 -0.6356 L4.7124 -0.336 L4.8272 -0.09688 L5.082 -0.03528 L5.4012 -0.15876 L5.6112 -0.4144 L5.7008 -0.742 L5.6728 -1.0584 L5.5412 -1.2432 L5.39 -1.288 L5.2584 -1.288"/><path data-openplotfont-kind="stroke" fill="none" d="M6.4764 -1.0332 L6.8376 -1.2964 L6.6444 -0.03528"/><path data-openplotfont-kind="stroke" fill="none" d="M7.7112 -1.1284 L7.9324 -1.2348 L8.1704 -1.2712 L8.3356 -1.19 L8.3804 -0.98 L8.302 -0.7308 L8.0892 -0.476 L7.8344 -0.23828 L7.58744 -0.03528 L7.826 -0.03528 L8.2404 -0.05292 L8.3552 -0.04424 L8.4168 -0.05292 L8.54 -0.13216"/></g></svg>