<svg xmlns="http://www.w3.org/2000/svg" viewBox="-0.336 -2.576 10.5504 3.472" width="180" height="40"><g color="#000" fill="none" stroke="#000" stroke-width="0.07" stroke-linecap="round" stroke-linejoin="round"><path data-plotfont-kind="stroke" fill="none" d="M1.0584 -1.8536 L0.4424 0"/><path data-plotfont-kind="stroke" fill="none" d="M1.0584 -1.8536 L1.6744 0"/><path data-plotfont-kind="stroke" fill="none" d="M1.0584 -1.5876 L1.5876 0"/><path data-plotfont-kind="stroke" fill="none" d="M0.616 -0.5292 L1.4112 -0.5292"/><path data-plotfont-kind="stroke" fill="none" d="M0.2646 0 L0.7952 0"/><path data-plotfont-kind="stroke" fill="none" d="M1.3216 0 L1.8536 0"/><path data-plotfont-kind="stroke" fill="none" d="M2.38 -1.0584 L2.38 -0.9688 L2.2932 -0.9688 L2.2932 -1.0584 L2.38 -1.148 L2.5592 -1.2348 L2.912 -1.2348 L3.0856 -1.148 L3.1752 -1.0584 L3.2648 -0.882 L3.2648 -0.2646 L3.3516 -0.0882 L3.4384 0"/><path data-plotfont-kind="stroke" fill="none" d="M3.1752 -1.0584 L3.1752 -0.2646 L3.2648 -0.0882 L3.4384 0 L3.528 0"/><path data-plotfont-kind="stroke" fill="none" d="M3.1752 -0.882 L3.0856 -0.7952 L2.5592 -0.7056 L2.2932 -0.616 L2.2064 -0.4424 L2.2064 -0.2646 L2.2932 -0.0882 L2.5592 0 L2.8224 0 L2.9988 -0.0882 L3.1752 -0.2646"/><path data-plotfont-kind="stroke" fill="none" d="M2.5592 -0.7056 L2.38 -0.616 L2.2932 -0.4424 L2.2932 -0.2646 L2.38 -0.0882 L2.5592 0"/><path data-plotfont-kind="stroke" fill="none" d="M5.5552 -1.8536 L5.292 -1.764 L5.1156 -1.5008 L5.0288 -1.0584 L5.0288 -0.7952 L5.1156 -0.3528 L5.292 -0.0882 L5.5552 0 L5.7344 0 L5.9976 -0.0882 L6.174 -0.3528 L6.2608 -0.7952 L6.2608 -1.0584 L6.174 -1.5008 L5.9976 -1.764 L5.7344 -1.8536 L5.5552 -1.8536"/><path data-plotfont-kind="stroke" fill="none" d="M5.5552 -1.8536 L5.3816 -1.764 L5.292 -1.6744 L5.2024 -1.5008 L5.1156 -1.0584 L5.1156 -0.7952 L5.2024 -0.3528 L5.292 -0.1764 L5.3816 -0.0882 L5.5552 0"/><path data-plotfont-kind="stroke" fill="none" d="M5.7344 0 L5.908 -0.0882 L5.9976 -0.1764 L6.0872 -0.3528 L6.174 -0.7952 L6.174 -1.0584 L6.0872 -1.5008 L5.9976 -1.6744 L5.908 -1.764 L5.7344 -1.8536"/><path data-plotfont-kind="stroke" fill="none" d="M7.056 -1.5008 L7.2324 -1.5876 L7.4984 -1.8536 L7.4984 0"/><path data-plotfont-kind="stroke" fill="none" d="M7.4088 -1.764 L7.4088 0"/><path data-plotfont-kind="stroke" fill="none" d="M7.056 0 L7.8512 0"/><path data-plotfont-kind="stroke" fill="none" d="M8.6436 -1.5008 L8.7304 -1.4112 L8.6436 -1.3216 L8.5568 -1.4112 L8.5568 -1.5008 L8.6436 -1.6744 L8.7304 -1.764 L8.9964 -1.8536 L9.3492 -1.8536 L9.6152 -1.764 L9.702 -1.6744 L9.7888 -1.5008 L9.7888 -1.3216 L9.702 -1.148 L9.436 -0.9688 L8.9964 -0.7952 L8.82 -0.7056 L8.6436 -0.5292 L8.5568 -0.2646 L8.5568 0"/><path data-plotfont-kind="stroke" fill="none" d="M9.3492 -1.8536 L9.5256 -1.764 L9.6152 -1.6744 L9.702 -1.5008 L9.702 -1.3216 L9.6152 -1.148 L9.3492 -0.9688 L8.9964 -0.7952"/><path data-plotfont-kind="stroke" fill="none" d="M8.5568 -0.1764 L8.6436 -0.2646 L8.82 -0.2646 L9.2624 -0.0882 L9.5256 -0.0882 L9.702 -0.1764 L9.7888 -0.2646"/><path data-plotfont-kind="stroke" fill="none" d="M8.82 -0.2646 L9.2624 0 L9.6152 0 L9.702 -0.0882 L9.7888 -0.2646 L9.7888 -0.4424"/></g></svg>