<svg xmlns="http://www.w3.org/2000/svg" viewBox="-0.24706 -1.89412 6.97941 2.55294" width="180" height="40"><g color="#000" fill="none" stroke="#000" stroke-width="0.05147" stroke-linecap="round" stroke-linejoin="round"><path data-plotfont-kind="stroke" fill="none" d="M1.4 0 L0 -1.4"/><path data-plotfont-kind="stroke" fill="none" d="M3.942647 0 L3.942647 -1.142647 L2.8 -1.142647"/><path data-plotfont-kind="stroke" fill="none" d="M3.086176 0 L3.086176 -0.286176 L2.8 -0.286176"/><path data-plotfont-kind="stroke" fill="none" d="M3.370294 0 L3.370294 -0.570294 L2.8 -0.570294"/><path data-plotfont-kind="stroke" fill="none" d="M3.656471 0 L3.656471 -0.856471 L2.8 -0.856471"/><path data-plotfont-kind="stroke" fill="none" d="M4.512941 0 L5.085294 -0.570294 L4.512941 -1.142647"/><path data-plotfont-kind="stroke" fill="none" d="M3.942647 -0.856471 L4.228824 -0.570294 L3.942647 -0.286176"/><path data-plotfont-kind="stroke" fill="none" d="M3.942647 0 L4.512941 -0.570294 L3.942647 -1.142647"/><path data-plotfont-kind="stroke" fill="none" d="M4.228824 0 L4.799118 -0.570294 L4.228824 -1.142647"/><path data-plotfont-kind="stroke" fill="none" d="M4.799118 0 L5.085294 -0.286176"/><path data-plotfont-kind="stroke" fill="none" d="M5.085294 -0.856471 L4.799118 -1.142647"/></g></svg>